# xmcd
#
# Track frame offsets:
#	150
#	20588
#	37171
#	53523
#	77578
#	97306
#	127212
#	147396
#	167053
#	184524
#	204451
#	226289
#	255450
#	275140
#	300111
#	324391
#
# Disc length: 4602 seconds
#
# Revision: 1
# Processed by: cddbd v1.5PL3 Copyright (c) Steve Scherf et al.
# Submitted via: audiograbber 1.82.02
#
DISCID=de11f810
DTITLE=Teddy Pendergrass - Bedroom Classics
DYEAR=1900
DGENRE=
TTITLE0=joy
TTITLE1=turn off the lights
TTITLE2=close the door
TTITLE3=hold me
TTITLE4=voodoo
TTITLE5=it should've been you
TTITLE6=love is the power
TTITLE7=2 am
TTITLE8=in my time
TTITLE9=love 4/2
TTITLE10=you're my choice tonight
TTITLE11=this is the last time
TTITLE12=stay with me
TTITLE13=make it wth you
TTITLE14=i'm always thinking about you
TTITLE15=let me be closer
EXTD=
EXTT0=
EXTT1=
EXTT2=
EXTT3=
EXTT4=
EXTT5=
EXTT6=
EXTT7=
EXTT8=
EXTT9=
EXTT10=
EXTT11=
EXTT12=
EXTT13=
EXTT14=
EXTT15=
PLAYORDER=
